<?xml version="1.0" standalone="no"?>
<!DOCTYPE svg PUBLIC "-//W3C//DTD SVG 20010904//EN"
 "http://www.w3.org/TR/2001/REC-SVG-20010904/DTD/svg10.dtd">
<svg version="1.0" xmlns="http://www.w3.org/2000/svg"
 width="1536.000000pt" height="1024.000000pt" viewBox="0 0 1536.000000 1024.000000"
 preserveAspectRatio="xMidYMid meet">

<g transform="translate(0.000000,1024.000000) scale(0.100000,-0.100000)"
fill="#000000" stroke="none">
<path d="M4597 8176 c-74 -27 -117 -88 -117 -166 0 -82 51 -149 130 -170 25
-7 203 -9 504 -8 l465 3 6 -25 c4 -14 22 -99 40 -190 19 -91 93 -448 165 -795
72 -346 151 -727 175 -845 143 -700 207 -993 224 -1033 29 -66 87 -126 156
-159 l60 -28 1292 0 c891 0 1300 3 1320 11 86 32 136 147 102 236 -14 38 -46
71 -91 94 -36 18 -78 19 -1277 19 l-1239 0 -6 26 c-4 14 -16 69 -27 122 -10
53 -22 105 -25 114 -5 17 68 18 1329 20 l1334 3 49 30 c88 55 98 81 197 521
49 214 134 585 189 824 144 628 140 610 133 656 -9 64 -57 128 -117 158 l-52
26 -1761 0 -1761 0 -46 222 c-52 246 -68 283 -143 322 -39 20 -54 21 -605 23
-460 2 -572 0 -603 -11z m4246 -981 c20 -14 44 -39 52 -55 20 -39 19 -118 -2
-157 -20 -35 -1251 -1089 -1290 -1104 -41 -15 -106 -10 -141 11 -19 12 -165
129 -325 262 -161 133 -326 270 -368 305 -42 34 -84 78 -93 97 -51 108 22 226
140 226 64 0 56 5 374 -256 140 -115 276 -226 302 -248 l47 -38 103 89 c272
236 1024 867 1047 879 43 23 111 18 154 -11z"/>
<path d="M6463 4596 c-95 -31 -189 -109 -231 -193 -94 -186 -15 -417 176 -510
51 -25 68 -28 157 -28 88 0 107 3 157 27 79 37 142 98 181 177 30 62 32 72 32
171 0 122 -17 166 -92 250 -66 74 -152 113 -256 117 -51 2 -98 -2 -124 -11z"/>
<path d="M8613 4596 c-107 -35 -196 -116 -235 -215 -17 -42 -22 -77 -22 -141
0 -109 26 -179 95 -255 198 -216 544 -140 630 138 57 182 -24 368 -195 452
-49 24 -75 30 -145 32 -54 2 -102 -2 -128 -11z"/>
<path d="M3805 3371 c-234 -68 -370 -247 -382 -501 -13 -265 110 -462 338
-541 85 -29 255 -32 343 -5 67 20 171 70 181 87 7 10 -42 159 -51 159 -3 0
-26 -11 -52 -24 -110 -56 -222 -70 -321 -40 -73 21 -150 97 -182 179 -19 49
-24 79 -24 165 0 94 3 111 28 166 34 74 94 135 162 166 75 33 188 31 275 -6
36 -15 72 -30 80 -32 12 -4 24 15 48 73 18 43 32 81 32 85 0 14 -99 58 -162
73 -85 20 -237 18 -313 -4z"/>
<path d="M9420 2904 c0 -433 2 -490 17 -521 26 -57 64 -73 166 -73 l87 0 0 89
0 90 -27 3 -28 3 -3 448 -2 447 -105 0 -105 0 0 -486z"/>
<path d="M11780 3199 l0 -191 -31 26 c-41 35 -128 59 -182 51 -154 -24 -243
-149 -254 -355 -12 -220 63 -374 201 -415 27 -8 61 -15 76 -15 50 0 126 30
167 65 44 37 53 33 53 -21 0 -24 1 -24 90 -24 l90 0 0 535 0 535 -105 0 -105
0 0 -191z m-35 -314 l35 -26 0 -164 0 -164 -37 -26 c-81 -54 -179 -22 -204 68
-20 70 -16 205 9 259 39 89 122 111 197 53z"/>
<path d="M4640 3074 c-119 -32 -213 -118 -250 -230 -32 -94 -26 -254 11 -334
92 -199 324 -267 532 -157 101 53 158 143 178 280 27 178 -45 344 -179 411
-91 46 -194 56 -292 30z m157 -165 c40 -15 81 -57 94 -97 6 -19 11 -70 11
-114 -1 -139 -61 -218 -166 -218 -106 0 -158 68 -158 210 0 87 21 148 64 188
42 38 104 51 155 31z"/>
<path d="M6030 3079 c-56 -11 -118 -53 -150 -103 -25 -38 -25 -38 -35 -15 -36
85 -91 119 -191 119 -85 0 -144 -27 -185 -83 l-29 -40 0 51 0 52 -100 0 -100
0 0 -370 0 -370 103 0 102 0 -2 228 c-1 126 3 244 9 266 14 58 60 96 113 96
53 0 91 -28 105 -78 5 -21 10 -143 10 -274 l0 -238 105 0 105 0 0 244 c0 137
4 256 10 271 18 48 58 75 110 75 37 0 51 -5 71 -26 l24 -26 3 -269 3 -269 104
0 105 0 0 278 c0 311 -6 355 -63 419 -51 58 -135 81 -227 62z"/>
<path d="M6825 3081 c-49 -13 -90 -38 -124 -76 l-31 -36 0 46 0 45 -100 0
-100 0 0 -510 0 -510 105 0 105 0 0 165 0 165 38 -24 c112 -73 261 -54 370 48
82 77 122 184 122 325 -1 217 -110 354 -292 366 -35 2 -76 1 -93 -4z m75 -173
c63 -32 93 -94 93 -192 0 -162 -76 -258 -192 -242 -25 3 -62 17 -83 31 l-38
25 0 148 0 149 33 37 c29 34 89 64 127 66 9 0 36 -10 60 -22z"/>
<path d="M7530 3079 c-69 -12 -204 -74 -197 -92 46 -109 51 -118 66 -111 139
62 255 70 298 20 14 -17 23 -40 23 -61 0 -40 3 -38 -132 -55 -105 -13 -145
-29 -200 -78 -54 -48 -78 -102 -78 -175 0 -108 54 -186 149 -214 92 -26 192
-2 251 62 l25 27 5 -39 5 -38 98 -3 98 -3 -3 293 -3 293 -30 54 c-35 63 -78
94 -160 116 -65 16 -130 18 -215 4z m190 -482 c0 -69 -2 -75 -32 -104 -54 -52
-116 -56 -158 -11 -22 24 -27 86 -10 119 14 25 62 49 119 59 86 14 81 18 81
-63z"/>
<path d="M8845 3076 c-74 -17 -173 -60 -180 -79 -5 -12 39 -127 49 -127 2 0
30 12 61 26 75 35 177 44 224 20 33 -17 51 -50 51 -91 0 -26 1 -26 -144 -45
-174 -22 -263 -102 -273 -245 -6 -84 31 -157 101 -200 44 -26 58 -30 125 -30
84 0 123 15 179 68 l32 31 0 -42 0 -42 95 0 95 0 0 293 c0 292 0 293 -25 343
-42 85 -114 122 -250 129 -48 3 -104 -1 -140 -9z m205 -475 c0 -76 -17 -109
-70 -136 -118 -61 -206 88 -99 167 23 17 89 34 147 37 21 1 22 -3 22 -68z"/>
<path d="M9992 3079 c-59 -10 -202 -72 -202 -87 0 -11 50 -122 55 -122 1 0 29
12 61 27 49 23 73 28 142 28 79 0 85 -1 108 -28 15 -18 24 -41 24 -62 0 -38 1
-38 -140 -55 -153 -18 -246 -88 -270 -203 -21 -102 20 -201 103 -247 34 -20
57 -24 117 -25 83 0 121 15 178 68 l32 31 0 -42 0 -42 101 0 100 0 -3 288 -3
287 -27 55 c-30 61 -66 93 -131 116 -54 19 -176 26 -245 13z m188 -483 c0 -72
-1 -75 -35 -105 -66 -58 -137 -53 -168 12 -15 31 -17 43 -7 71 15 48 42 68
108 82 105 23 102 25 102 -60z"/>
<path d="M8405 3066 c-29 -13 -68 -48 -99 -91 -14 -18 -15 -16 -13 33 l2 52
-102 0 -103 0 0 -370 0 -370 105 0 105 0 0 233 0 234 30 41 c16 23 39 46 50
52 26 14 96 18 133 7 l28 -8 -3 98 -3 98 -50 2 c-27 2 -64 -3 -80 -11z"/>
<path d="M10855 3062 c-40 -19 -73 -50 -93 -87 -10 -17 -11 -11 -12 33 l0 52
-100 0 -100 0 0 -370 0 -370 105 0 105 0 0 250 c0 271 3 290 54 324 14 9 44
16 66 16 100 0 110 -30 110 -345 l0 -245 106 0 106 0 -4 288 -3 287 -30 60
c-17 33 -47 72 -68 90 -35 27 -47 30 -120 33 -64 2 -91 -2 -122 -16z"/>
</g>
</svg>
